<svg xmlns="http://www.w3.org/2000/svg" width="720" height="1280" viewBox="0 0 720 1280">
  <defs>
    <linearGradient id="bg" x1="0%" y1="0%" x2="100%" y2="100%">
      <stop offset="0%" stop-color="#0a1020"/>
      <stop offset="100%" stop-color="#162342"/>
    </linearGradient>
    <linearGradient id="card" x1="0%" y1="0%" x2="0%" y2="100%">
      <stop offset="0%" stop-color="#15243f"/>
      <stop offset="100%" stop-color="#0d1427"/>
    </linearGradient>
  </defs>
  <rect width="720" height="1280" rx="72" fill="url(#bg)"/>
  <rect x="58" y="84" width="604" height="112" rx="26" fill="#ffffff" fill-opacity="0.06" stroke="#79e8ff" stroke-opacity="0.32"/>
  <text x="96" y="150" font-family="Segoe UI, PingFang SC, sans-serif" font-size="40" font-weight="700" fill="#f5f8ff">Source Proof</text>
  <text x="96" y="188" font-family="Segoe UI, PingFang SC, sans-serif" font-size="22" fill="#9fb4e8">Actual UI region used in the video</text>

  <rect x="58" y="244" width="604" height="344" rx="36" fill="url(#card)" stroke="#ffffff" stroke-opacity="0.08"/>
  <text x="96" y="306" font-family="Segoe UI, PingFang SC, sans-serif" font-size="26" fill="#79e8ff">Search</text>
  <rect x="92" y="334" width="536" height="78" rx="22" fill="#ffffff" fill-opacity="0.05"/>
  <text x="122" y="384" font-family="Segoe UI, PingFang SC, sans-serif" font-size="28" fill="#f5f8ff">premium editorial workflow</text>
  <rect x="92" y="446" width="536" height="104" rx="26" fill="#79e8ff" fill-opacity="0.11" stroke="#79e8ff" stroke-opacity="0.4"/>
  <text x="122" y="505" font-family="Segoe UI, PingFang SC, sans-serif" font-size="34" font-weight="700" fill="#f5f8ff">Director-first render</text>
  <text x="122" y="540" font-family="Segoe UI, PingFang SC, sans-serif" font-size="22" fill="#bfd1ff">strategy locked before visual proof is placed</text>

  <rect x="58" y="636" width="604" height="538" rx="36" fill="url(#card)" stroke="#ffffff" stroke-opacity="0.08"/>
  <rect x="92" y="682" width="536" height="132" rx="28" fill="#ffffff" fill-opacity="0.04"/>
  <text x="122" y="742" font-family="Segoe UI, PingFang SC, sans-serif" font-size="28" fill="#f5f8ff">Visual strategy</text>
  <text x="122" y="782" font-family="Segoe UI, PingFang SC, sans-serif" font-size="22" fill="#9fb4e8">proof scene with magnify annotation</text>
  <rect x="92" y="856" width="536" height="252" rx="30" fill="#ff9adf" fill-opacity="0.1" stroke="#ff9adf" stroke-opacity="0.34"/>
  <rect x="154" y="930" width="356" height="110" rx="20" fill="none" stroke="#ff9adf" stroke-width="8"/>
  <circle cx="556" cy="940" r="54" fill="none" stroke="#79e8ff" stroke-width="8"/>
  <line x1="518" y1="978" x2="476" y2="1020" stroke="#79e8ff" stroke-width="8"/>
  <text x="122" y="1120" font-family="Segoe UI, PingFang SC, sans-serif" font-size="26" font-weight="700" fill="#f5f8ff">proof focus</text>
</svg>
